<svg xmlns="http://www.w3.org/2000/svg" version="1.1" xmlns:xlink="http://www.w3.org/1999/xlink" xmlns:svgjs="http://svgjs.dev/svgjs" width="1500" height="1500" viewBox="0 0 1500 1500"><rect width="1500" height="1500" fill="#282634"></rect><g transform="matrix(0.6666666666666666,0,0,0.6666666666666666,248.76890756302515,643.0890801639343)"><svg viewBox="0 0 357 76" data-background-color="#282634" preserveAspectRatio="xMidYMid meet" height="319" width="1500" xmlns="http://www.w3.org/2000/svg" xmlns:xlink="http://www.w3.org/1999/xlink"><g id="tight-bounds" transform="matrix(1,0,0,1,0.43950000000003797,0.20641022354695338)"><svg viewBox="0 0 356.12052 75.58717955290611" height="75.58717955290611" width="356.12052"><g><svg viewBox="0 0 356.12052 75.58717955290611" height="75.58717955290611" width="356.12052"><g><svg viewBox="0 0 356.12052 75.58717955290611" height="75.58717955290611" width="356.12052"><g><path d="M0 75.587v-75.587h356.121v75.587z" fill="#ff4057" stroke="transparent" stroke-width="0" rx="0%" data-fill-palette-color="tertiary"></path><path d="M3.283 72.304v-69.021h349.554v69.021z" fill="#282634" stroke="transparent" stroke-width="0" rx="0%" data-fill-palette-color="quaternary"></path><path d="M9.85 65.737v-55.887h336.421v55.887z" fill="#ff4057" stroke="transparent" stroke-width="0" data-fill-palette-color="tertiary"></path></g><g transform="matrix(1,0,0,1,19.69974,19.69974)" id="textblocktransform"><svg viewBox="0 0 316.72104 36.18769955290611" height="36.18769955290611" width="316.72104" id="textblock"><g><svg viewBox="0 0 316.72104 36.18769955290611" height="36.18769955290611" width="316.72104"><g transform="matrix(1,0,0,1,0,0)"><svg width="316.72104" viewBox="0.75 -34.1 301.93 34.5" height="36.18769955290611" data-palette-color="#282634"><path d="M0.75 0L7.25-33.45 26.5-33.45 25.65-29.25 12.2-29.25 10.3-19.2 21.2-19.2 20.3-15.05 9.45-15.05 6.55 0 0.75 0ZM17.4-0.95L35.65-33.45 40.2-33.45 46.6 0 40.5 0 39.05-9 27.85-9 23.1 0.4 17.4-0.95ZM38.45-13.15Q37.75-17.4 37.35-20.88 36.95-24.35 36.7-26.45L36.7-26.45Q35.55-24.25 33.77-20.8 32-17.35 29.9-13.15L29.9-13.15 38.45-13.15ZM67.14 0L70.14-15.5 56.89-15.5 53.84 0 48.09 0 54.59-33.45 60.34-33.45 57.64-19.65 70.94-19.65 73.64-33.45 79.39-33.45 72.89 0 67.14 0ZM80.94 0L87.44-33.45 93.24-33.45 86.74 0 80.94 0ZM122.54 0L124.44-12.75Q124.54-13.5 124.74-14.58 124.94-15.65 125.19-16.93 125.44-18.2 125.72-19.6 125.99-21 126.24-22.3L126.24-22.3Q125.54-21 124.81-19.58 124.09-18.15 123.36-16.88 122.64-15.6 122.04-14.55 121.44-13.5 121.09-12.9L121.09-12.9 113.29 0 109.24 0 106.39-12.75Q106.24-13.4 106.04-14.48 105.84-15.55 105.59-16.82 105.34-18.1 105.09-19.53 104.84-20.95 104.59-22.25L104.59-22.25Q104.39-20.9 104.19-19.48 103.99-18.05 103.81-16.78 103.64-15.5 103.46-14.48 103.29-13.45 103.14-12.9L103.14-12.9 100.29 0.15 94.49-0.7 102.54-33.45 107.24-33.45 111.39-12.8Q111.64-11.5 111.89-10.05 112.14-8.6 112.34-7.15L112.34-7.15Q113.09-8.55 113.84-10 114.59-11.45 115.39-12.8L115.39-12.8 127.54-33.45 132.19-33.45 128.44 0 122.54 0ZM143.64-0.95L161.89-33.45 166.44-33.45 172.84 0 166.74 0 165.29-9 154.09-9 149.34 0.4 143.64-0.95ZM164.69-13.15Q163.99-17.4 163.59-20.88 163.19-24.35 162.94-26.45L162.94-26.45Q161.78-24.25 160.01-20.8 158.24-17.35 156.14-13.15L156.14-13.15 164.69-13.15ZM193.38 0L196.38-15.5 183.13-15.5 180.08 0 174.33 0 180.83-33.45 186.58-33.45 183.88-19.65 197.18-19.65 199.88-33.45 205.63-33.45 199.13 0 193.38 0ZM234.98 0L236.88-12.75Q236.98-13.5 237.18-14.58 237.38-15.65 237.63-16.93 237.88-18.2 238.16-19.6 238.43-21 238.68-22.3L238.68-22.3Q237.98-21 237.25-19.58 236.53-18.15 235.81-16.88 235.08-15.6 234.48-14.55 233.88-13.5 233.53-12.9L233.53-12.9 225.73 0 221.68 0 218.83-12.75Q218.68-13.4 218.48-14.48 218.28-15.55 218.03-16.82 217.78-18.1 217.53-19.53 217.28-20.95 217.03-22.25L217.03-22.25Q216.83-20.9 216.63-19.48 216.43-18.05 216.25-16.78 216.08-15.5 215.91-14.48 215.73-13.45 215.58-12.9L215.58-12.9 212.73 0.15 206.93-0.7 214.98-33.45 219.68-33.45 223.83-12.8Q224.08-11.5 224.33-10.05 224.58-8.6 224.78-7.15L224.78-7.15Q225.53-8.55 226.28-10 227.03-11.45 227.83-12.8L227.83-12.8 239.98-33.45 244.63-33.45 240.88 0 234.98 0ZM247.78 0L254.28-33.45 273.53-33.45 272.68-29.25 259.23-29.25 257.38-19.65 268.23-19.65 267.33-15.5 256.58-15.5 254.38-4.2 268.23-4.2 268.23 0 247.78 0ZM273.07 0L279.57-33.65 284.02-33.3Q285.77-33.7 287.77-33.9 289.77-34.1 291.68-34.1L291.68-34.1Q297.47-34.1 300.07-31.2 302.68-28.3 302.68-23.05L302.68-23.05Q302.68-18 301.68-13.78 300.68-9.55 298.27-6.45 295.88-3.35 291.95-1.63 288.02 0.1 282.18 0.1L282.18 0.1Q280.68 0.1 279.3 0.08 277.93 0.05 276.85 0.05 275.77 0.05 275.1 0.03 274.43 0 274.38 0L274.38 0 273.07 0ZM289.97-29.75Q288.38-29.75 287-29.6 285.63-29.45 284.47-29.05L284.47-29.05 279.68-4.4 283.18-4.4Q286.93-4.4 289.43-5.9 291.93-7.4 293.45-9.88 294.97-12.35 295.63-15.58 296.27-18.8 296.27-22.2L296.27-22.2Q296.27-23.85 295.97-25.23 295.68-26.6 294.93-27.6 294.18-28.6 292.97-29.18 291.77-29.75 289.97-29.75L289.97-29.75Z" opacity="1" transform="matrix(1,0,0,1,0,0)" fill="#282634" class="wordmark-text-0" data-fill-palette-color="quaternary" id="text-0"></path></svg></g></svg></g></svg></g></svg></g><g></g></svg></g><defs></defs></svg><rect width="356.12052" height="75.58717955290611" fill="none" stroke="none" visibility="hidden"></rect></g></svg></g></svg>